<mxfile host="app.diagrams.net" modified="2024-05-01T21:16:18.285Z" agent="Mozilla/5.0 (Windows NT 10.0; Win64; x64) AppleWebKit/537.36 (KHTML, like Gecko) Chrome/124.0.0.0 Safari/537.36 Edg/124.0.0.0" version="24.2.8" etag="0Z2N2h0CHpd6VSs02emS" type="github">
  <diagram name="Page-1" id="Pcw4f-RPTkZvV2oBM6oO">
    <mxGraphModel>
      <root>
        <mxCell id="0" />
        <mxCell id="1" parent="0" />
      </root>
    </mxGraphModel>
  </diagram>
</mxfile>
